# xmcd
#
# Track frame offsets: 
#        150
#        22468
#        43907
#        63649
#        92315
#        105031
#        124887
#        153880
#        170501
#        196032
#        209293
#        232403
#
# Disc length: 3274 seconds
#
# Revision: 3
# Processed by: cddbd v1.5.2PL0 Copyright (c) Steve Scherf et al.
# Submitted via: ExactAudioCopy v1.0b1
#
DISCID=a10cc80c
DTITLE=Otis Rush - Troubles, Troubles
DYEAR=1978
DGENRE=Blues
TTITLE0=Baby What You Want Me To Do?
TTITLE1=Little Red Rooster
TTITLE2=Whole Lotta Lovin'
TTITLE3=Gotta Be Some Changes Made
TTITLE4=You Been An Angel
TTITLE5=You Don't Have To Go
TTITLE6=Troubles, Troubles, Troubles
TTITLE7=Miss You So
TTITLE8=Hold Your Train
TTITLE9=Same Old Blues
TTITLE10=You Been An Angel - Alternate take
TTITLE11=Same Old Blues - Alternate take
EXTD=Recorded in Stickholm by Sonet Records in 1877, this is a 2005 re
EXTD=mastered re-release.
EXTT0=
EXTT1=
EXTT2=
EXTT3=
EXTT4=
EXTT5=
EXTT6=
EXTT7=
EXTT8=
EXTT9=
EXTT10=
EXTT11=
PLAYORDER=
